<svg width="24" height="25" viewBox="0 0 24 25" fill="none" xmlns="http://www.w3.org/2000/svg">
<path d="M23 12.5L20.56 9.71L20.9 6.02L17.29 5.2L15.4 2L12 3.46L8.6 2L6.71 5.19L3.1 6L3.44 9.7L1 12.5L3.44 15.29L3.1 18.99L6.71 19.81L8.6 23L12 21.53L15.4 22.99L17.29 19.8L20.9 18.98L20.56 15.29L23 12.5ZM9.38 16.51L7 14.11C6.9073 14.0175 6.83375 13.9076 6.78357 13.7866C6.73339 13.6657 6.70756 13.536 6.70756 13.405C6.70756 13.274 6.73339 13.1443 6.78357 13.0234C6.83375 12.9024 6.9073 12.7925 7 12.7L7.07 12.63C7.46 12.24 8.1 12.24 8.49 12.63L10.1 14.25L15.25 9.09C15.64 8.7 16.28 8.7 16.67 9.09L16.74 9.16C17.13 9.55 17.13 10.18 16.74 10.57L10.82 16.51C10.41 16.9 9.78 16.9 9.38 16.51Z" fill="#34A853"/>
</svg>
